PathFileType	4	(X/Y/Z)	C:\Users\WrightLab\Desktop\Jo\P4V16.trc
DataRate	CameraRate	NumFrames	NumMarkers	Units	OrigDataRate	OrigDataStartFrame	OrigNumFrames
100.00	100.00	       11	19	mm	100.00	394	       525
Frame#	Time	Headset_Front			Headset_Back			Headset_Left			Headset_Right			Left_Shoulder			Right_Shoulder			Sternum			C7			Left Elbow			Right Elbow			Left Wrist			Right Wrist			Left ASIS			Right ASIS			S2			Left Knee			Right Knee			Left Ankle			Right Ankle			
		X1	Y1	Z1	X2	Y2	Z2	X3	Y3	Z3	X4	Y4	Z4	X5	Y5	Z5	X6	Y6	Z6	X7	Y7	Z7	X8	Y8	Z8	X9	Y9	Z9	X10	Y10	Z10	X11	Y11	Z11	X12	Y12	Z12	X13	Y13	Z13	X14	Y14	Z14	X15	Y15	Z15	X16	Y16	Z16	X17	Y17	Z17	X18	Y18	Z18	X19	Y19	Z19	

394	3.930	156.08807	1727.03149	1862.05640										370.62555	1571.31763	1703.00085	80.64663	1569.92908	1602.66931	200.62560	1514.16821	1762.72839				538.73511	1236.46851	1754.34399	-76.23907	1234.43555	1560.79810	466.71182	1001.96368	1940.70898	-134.32056	953.89935	1668.57898	357.52612	1081.88989	1803.20984	34.13509	1075.28662	1711.90173	265.79990	1092.10193	1583.89490	357.33673	589.50531	1787.09387	-35.52447	630.30255	1827.79346	341.94760	96.70240	1657.37598	92.90385	142.90894	1691.66370	
395	3.940	153.39722	1726.92334	1870.54651										367.66812	1570.56177	1710.28711	77.21850	1569.87537	1610.87720	197.48512	1513.43884	1770.16248				535.26575	1235.97375	1765.73132	-77.69388	1234.15076	1564.72485	459.69257	1004.06091	1952.99902	-138.45749	952.43805	1668.28003	355.17883	1081.57471	1810.36023	31.15189	1074.99170	1721.47852	262.21414	1092.42944	1590.11414	356.49481	588.69342	1788.80994	-38.33920	630.38086	1835.15369	341.91162	96.70414	1657.39319	77.55334	134.96880	1718.60962	
396	3.950	149.43167	1726.28650	1878.70850										364.40747	1569.92200	1718.08862	74.19380	1568.95715	1617.81531	194.53340	1512.80420	1777.10278				531.17920	1235.50049	1775.01501	-79.64323	1233.51550	1569.61584	452.71182	1006.19800	1965.17310	-141.77205	950.45758	1667.26306	352.39508	1080.63892	1816.83350	27.69307	1074.14954	1729.78101	259.29181	1092.09216	1597.45093	355.11420	589.52771	1793.57080	-40.67569	629.24927	1845.09106	341.83881	96.74497	1657.43628	61.66410	128.10936	1747.44446	
397	3.960	146.15141	1725.84387	1885.38770										361.08862	1569.30188	1725.37256	70.69707	1568.69653	1625.70300	191.73866	1512.34314	1784.87793				526.78632	1234.94385	1785.36914	-81.32843	1233.36780	1572.84387	445.62750	1008.10480	1976.87012	-144.81046	948.05847	1665.25269	349.41129	1080.54883	1825.16125	24.82136	1073.32959	1737.22058	256.16675	1091.15649	1604.47656	353.26443	588.33899	1796.21619	-43.07067	628.76849	1851.74976	341.51257	97.06167	1657.00549	46.37747	121.58986	1775.63562	
398	3.970	142.55133	1725.30493	1894.35352										358.05957	1568.29785	1731.73962	66.83267	1568.25293	1634.59546	188.38779	1512.00342	1793.02710				521.97766	1234.01172	1795.59204	-83.08423	1233.10718	1575.83057	438.49240	1010.16449	1988.59607	-147.83363	946.65735	1666.30505	346.30634	1079.61487	1832.55774	21.90811	1072.92004	1745.82007	252.25548	1091.32800	1611.81348	352.25363	587.89813	1799.12866	-45.36689	627.19604	1860.97278	341.09793	96.93684	1656.95886	30.13818	116.92809	1800.81091	
399	3.980	139.49689	1724.64941	1901.69299										354.53613	1567.55640	1738.65955	62.84758	1567.69373	1642.38464	184.15260	1511.26526	1801.11218				517.38391	1233.17017	1805.74927	-85.15582	1232.41394	1580.58875	431.27841	1011.91992	2000.71143	-151.28125	944.96478	1666.39136	343.17096	1078.84045	1839.48425	18.28557	1071.88257	1755.18420	248.82899	1090.36414	1620.64417	350.42831	586.81854	1801.69666	-47.76043	625.77631	1868.29712	341.05597	96.96341	1656.98438	13.49916	113.51361	1829.27820	
400	3.990	135.64992	1723.61267	1908.62195										350.66971	1566.88354	1745.83972	59.26299	1566.58484	1649.73657	181.31502	1510.18848	1806.90710				512.06085	1232.38049	1815.52600	-87.12213	1232.01892	1585.30530	424.10498	1013.48254	2011.71265	-153.66237	942.99994	1667.31311	340.39603	1078.81592	1847.26917	14.87724	1071.05713	1762.42859	245.11020	1090.17505	1630.30005	348.04208	586.89746	1806.30432	-50.33454	623.95990	1875.85559	340.73990	97.52809	1657.35986	-1.97998	110.18810	1854.83740	
401	4.000	132.25261	1723.15759	1916.13940										347.09988	1566.27295	1753.05701	54.83451	1566.69922	1658.26086	177.78886	1509.53455	1815.31616				506.90732	1231.37500	1824.40710	-89.61547	1231.49060	1589.79456	416.24316	1015.04645	2022.11682	-155.96727	941.13739	1668.14978	337.11713	1077.48389	1854.89685	10.95112	1070.52393	1771.88904	241.27831	1088.38965	1639.78442	346.02231	586.71631	1810.08789	-52.55605	622.21606	1883.85083	340.69910	97.56374	1657.38708	-17.61936	108.49892	1881.78528	
402	4.010	128.60419	1722.39099	1924.67688	56.20957	1742.29578	1794.50024							343.11157	1565.36023	1760.59167	50.84185	1565.46130	1666.06128	173.38733	1509.22278	1824.03247				501.45758	1230.68445	1833.45569	-90.57088	1229.70654	1595.92578	408.66870	1016.27155	2033.13098	-159.21526	939.80566	1669.95288	333.33090	1076.57861	1862.39722	7.71404	1070.00391	1780.79688	236.71892	1088.30969	1646.66760	344.24634	586.14178	1813.68604	-54.74666	620.01642	1891.01672	340.58423	97.73361	1657.52966	-32.88260	107.22047	1906.73523	
403	4.020	124.97039	1721.45239	1932.26550	52.86306	1740.82996	1802.06836							339.38248	1563.97729	1767.30823	46.83175	1564.36951	1673.36023	169.77293	1507.93567	1831.05627				495.63867	1229.60535	1843.95398	-93.27634	1228.83789	1601.39941	401.93295	1017.83453	2043.99463	-161.79668	938.25336	1672.85327	330.22229	1075.63171	1869.14026	3.85732	1068.91907	1789.82544	232.71555	1087.41870	1653.81421	341.90668	584.77252	1816.09583	-56.15402	617.75897	1898.96216	340.12762	97.48451	1658.18347	-48.12643	106.44160	1932.80286	
404	4.030	120.78040	1720.74609	1939.45972	48.68761	1741.26147	1810.65466							335.45160	1563.07007	1773.71411	42.30297	1563.54895	1682.01416	165.67027	1507.20715	1838.40613				490.43451	1228.35217	1853.07861	-96.44112	1228.91174	1605.52600	392.79727	1017.69531	2053.12256	-164.03940	936.21124	1675.75049	326.89630	1074.94604	1877.89514	-0.36567	1067.43945	1797.95349				339.79703	584.70068	1821.02795	-57.60352	615.48297	1906.39441	340.09543	97.57110	1658.21826	-61.95770	107.39491	1958.60254	
